<mxfile host="app.diagrams.net" modified="2023-05-21T22:06:27.106Z" agent="Mozilla/5.0 (Windows NT 10.0; Win64; x64) AppleWebKit/537.36 (KHTML, like Gecko) Chrome/113.0.0.0 Safari/537.36 Edg/113.0.1774.50" version="21.3.2" etag="4lZHbXTMX0BU8xZgz4KW" type="github">
  <diagram name="Страница 1" id="_mejZS6ALdZnEdtFayfQ">
    <mxGraphModel>
      <root>
        <mxCell id="0" />
        <mxCell id="1" parent="0" />
      </root>
    </mxGraphModel>
  </diagram>
</mxfile>
